<!-- Generated by IcoMoon.io -->
<svg version="1.1" xmlns="http://www.w3.org/2000/svg" width="32" height="32" viewBox="0 0 32 32">
<title>butterfly-icon</title>
<path d="M16.036 13.276c0.77 0 1.397 1.759 1.397 3.931 0 2.17-0.624 3.931-1.397 3.931s-1.397-1.759-1.397-3.931c0.003-2.172 0.627-3.931 1.397-3.931v0zM14.855 11.822c-0.036-0.060-0.060-0.13-0.070-0.203-0.252-1.694-0.762-3.335-1.46-4.803-0.645-1.358-1.449-2.563-2.352-3.523-0.182 0.101-0.393 0.161-0.617 0.161-0.702 0-1.272-0.57-1.272-1.272-0.003-0.702 0.567-1.272 1.27-1.272s1.272 0.57 1.272 1.272c0 0.057-0.005 0.114-0.010 0.169 1.054 1.074 1.985 2.443 2.719 3.988 0.713 1.499 1.244 3.166 1.522 4.891 0.096-0.013 0.193-0.016 0.289-0.005 0.034 0.003 0.068 0.008 0.099 0.016 0.278-1.727 0.809-3.4 1.525-4.901 0.734-1.545 1.665-2.914 2.719-3.988-0.008-0.055-0.010-0.112-0.010-0.169 0-0.702 0.57-1.272 1.272-1.272s1.272 0.57 1.272 1.272c0 0.702-0.57 1.272-1.272 1.272-0.224 0-0.434-0.057-0.617-0.161-0.903 0.96-1.707 2.165-2.352 3.523-0.697 1.467-1.21 3.109-1.459 4.803-0.016 0.101-0.057 0.195-0.117 0.271 0.172 0.208 0.338 0.46 0.497 0.752 0.908-1.949 2.159-3.624 3.718-5.058 1.751-1.608 3.887-2.906 6.361-3.934 0.010-0.005 0.021-0.008 0.031-0.010v0c0.775-0.242 1.457-0.362 2.034-0.323 0.632 0.044 1.145 0.276 1.522 0.744 0.541 0.669 0.65 1.878 0.593 3.109-0.057 1.181-0.263 2.373-0.388 3.080-0.263 1.48-0.58 3.010-1.189 4.381-0.622 1.397-1.54 2.612-3 3.408-0.432 0.237-0.885 0.424-1.358 0.567-0.164 0.049-0.333 0.094-0.505 0.133l0.021 0.013c1.324 0.825 2.711 1.691 2.901 3.346 0.049 0.427-0.042 1.153-0.185 1.917-0.195 1.038-0.494 2.172-0.676 2.706-0.242 0.713-0.645 1.793-1.218 2.682-0.617 0.96-1.431 1.709-2.461 1.629-1.491-0.114-2.76-1.27-3.793-2.802-1.27-1.886-2.193-4.366-2.698-6.093-0.393 0.562-0.827 0.864-1.311 0.869-0.499 0.005-1.004-0.312-1.514-0.996-0.349 1.355-1.069 3.382-2.019 5.159-1.212 2.271-2.815 4.152-4.571 3.884-0.010-0.003-0.021-0.003-0.031-0.005h-0.005c-0.206-0.036-0.408-0.099-0.604-0.19-1.244-0.575-2.274-2.248-2.932-4.079-0.65-1.803-0.95-3.78-0.744-4.995 0.044-0.252 0.107-0.476 0.195-0.666 0.226-0.489 0.562-0.913 0.952-1.283 0.377-0.359 0.809-0.666 1.241-0.926 0.143-0.088 0.289-0.169 0.437-0.247-0.187-0.029-0.375-0.065-0.565-0.109-0.697-0.159-1.27-0.343-1.782-0.637-0.52-0.299-0.973-0.705-1.421-1.303-0.83-1.111-1.371-2.31-1.748-3.567-0.372-1.238-0.583-2.531-0.76-3.848v0l-0.023-0.182c-0.219-1.618-0.546-4.043 0.791-5.318 0.843-0.804 2.378-0.507 4.025 0.25 2.453 1.126 5.24 3.291 6.077 4.163 0.684 0.71 1.316 1.501 1.889 2.38 0.445 0.684 0.853 1.421 1.223 2.217 0.213-0.369 0.429-0.661 0.643-0.885v0zM6.884 13.094c0.122 0.094 0.146 0.268 0.052 0.39s-0.268 0.146-0.39 0.052c-0.523-0.401-1.064-0.778-1.618-1.127-0.557-0.351-1.132-0.676-1.725-0.976-0.138-0.070-0.193-0.237-0.122-0.375s0.237-0.193 0.375-0.122c0.609 0.307 1.199 0.64 1.772 1.002 0.57 0.359 1.124 0.744 1.657 1.155v0zM24.583 18.076c0.052 0.005 0.104 0.021 0.148 0.044 0.369-0.049 0.728-0.125 1.074-0.229 0.427-0.127 0.833-0.297 1.215-0.507 1.293-0.708 2.115-1.798 2.677-3.059 0.572-1.288 0.879-2.771 1.134-4.204 0.122-0.692 0.325-1.863 0.38-2.987 0.052-1.074-0.026-2.107-0.427-2.604-0.237-0.294-0.572-0.44-0.996-0.468-0.476-0.034-1.061 0.073-1.743 0.284-2.386 0.994-4.446 2.243-6.127 3.788-1.678 1.538-2.981 3.374-3.863 5.547v0c-0.036 0.088-0.104 0.164-0.2 0.203-0.19 0.081-0.406-0.008-0.486-0.198-0.437-1.041-0.872-1.67-1.303-1.717-0.419-0.047-0.929 0.471-1.553 1.717-0.036 0.088-0.107 0.161-0.2 0.2-0.19 0.078-0.408-0.010-0.486-0.2-0.429-1.028-0.918-1.954-1.465-2.794-0.546-0.838-1.15-1.592-1.8-2.269-0.804-0.838-3.484-2.916-5.851-4.006-1.387-0.637-2.633-0.931-3.205-0.388-1.061 1.015-0.762 3.216-0.565 4.68l0.023 0.182v0.003c0.172 1.277 0.377 2.534 0.736 3.733 0.354 1.181 0.859 2.305 1.629 3.335 0.382 0.51 0.762 0.853 1.197 1.103 0.442 0.255 0.95 0.416 1.577 0.559 0.312 0.070 0.627 0.122 0.942 0.156 0.19 0.021 0.38 0.034 0.567 0.042 0.018-0.005 0.039-0.008 0.060-0.010l6.088-0.695c0.25-0.029 0.476 0.151 0.502 0.401 0.029 0.25-0.151 0.476-0.401 0.502l-6.088 0.695c-0.026 0.003-0.052 0.003-0.075 0.003-0.148 0.062-0.297 0.127-0.442 0.195-0.281 0.133-0.552 0.276-0.804 0.429-0.388 0.234-0.773 0.51-1.111 0.83-0.328 0.31-0.606 0.661-0.788 1.056-0.060 0.13-0.107 0.291-0.138 0.479-0.187 1.101 0.099 2.929 0.708 4.62 0.598 1.665 1.501 3.169 2.544 3.653 0.135 0.062 0.276 0.107 0.414 0.13v0h0.003c0.008 0 0.016 0.003 0.023 0.003 1.361 0.208 2.726-1.478 3.804-3.497 1.127-2.107 1.917-4.566 2.12-5.744 0.003-0.008 0.005-0.034 0.013-0.083v0c0.016-0.109 0.083-0.211 0.187-0.271 0.18-0.099 0.406-0.036 0.505 0.143 0.533 0.96 0.981 1.402 1.355 1.4 0.356-0.005 0.721-0.44 1.095-1.238 0.044-0.107 0.135-0.193 0.255-0.221 0.2-0.049 0.401 0.073 0.45 0.273 0.398 1.613 1.381 4.581 2.833 6.738 0.916 1.358 2.008 2.383 3.229 2.477 0.695 0.052 1.298-0.533 1.779-1.288 0.528-0.825 0.911-1.842 1.137-2.516 0.172-0.51 0.46-1.603 0.65-2.607 0.133-0.702 0.216-1.35 0.177-1.696-0.151-1.296-1.381-2.066-2.555-2.797-0.211-0.13-0.419-0.263-0.63-0.398-0.010 0-0.023-0.003-0.034-0.003l-6.088-0.695c-0.25-0.029-0.429-0.255-0.401-0.502 0.029-0.25 0.255-0.429 0.502-0.401l6.093 0.689zM20.662 13.208c-0.094 0.122-0.268 0.146-0.39 0.052s-0.146-0.268-0.052-0.39c1.168-1.527 2.438-2.911 3.827-4.121 1.394-1.212 2.911-2.253 4.574-3.091 0.138-0.070 0.304-0.013 0.375 0.122 0.070 0.138 0.013 0.304-0.122 0.375-1.618 0.814-3.096 1.829-4.457 3.015-1.366 1.186-2.609 2.542-3.754 4.038v0zM25.53 13.536c-0.122 0.094-0.297 0.070-0.39-0.052s-0.070-0.297 0.052-0.39c0.533-0.408 1.087-0.796 1.66-1.155 0.572-0.362 1.163-0.695 1.772-1.002 0.138-0.070 0.304-0.013 0.375 0.122 0.070 0.138 0.013 0.304-0.122 0.375-0.593 0.299-1.168 0.624-1.725 0.976-0.559 0.349-1.098 0.726-1.621 1.127v0zM22.98 13.162c-0.107 0.109-0.284 0.112-0.395 0.003-0.109-0.107-0.112-0.284-0.003-0.395 0.892-0.911 1.834-1.743 2.836-2.49 1.004-0.749 2.068-1.413 3.203-1.985 0.138-0.070 0.304-0.013 0.375 0.122 0.070 0.138 0.013 0.304-0.122 0.375-1.101 0.554-2.139 1.202-3.119 1.933-0.981 0.739-1.904 1.551-2.773 2.438v0zM11.856 12.87c0.094 0.122 0.070 0.297-0.052 0.39s-0.297 0.070-0.39-0.052c-1.145-1.496-2.388-2.851-3.752-4.038-1.361-1.184-2.841-2.198-4.457-3.015-0.138-0.070-0.193-0.237-0.122-0.375s0.237-0.193 0.375-0.122c1.662 0.838 3.179 1.878 4.574 3.091 1.387 1.21 2.656 2.594 3.824 4.121v0zM9.491 12.771c0.107 0.109 0.107 0.286-0.003 0.395s-0.286 0.107-0.395-0.003c-0.869-0.887-1.793-1.701-2.773-2.433s-2.019-1.379-3.119-1.933c-0.138-0.070-0.193-0.237-0.122-0.375s0.237-0.193 0.375-0.122c1.134 0.572 2.198 1.236 3.203 1.985 1.002 0.741 1.946 1.574 2.836 2.485v0z"></path>
</svg>
