<!-- Generated by IcoMoon.io -->
<svg version="1.1" xmlns="http://www.w3.org/2000/svg" width="32" height="32" viewBox="0 0 32 32">
<title>lighthouse-icon</title>
<path d="M19.429 4.189v5.341h0.442c0.174 0 0.33 0.070 0.445 0.185s0.185 0.271 0.185 0.445v2.274h0.468c0.213 0 0.385 0.172 0.388 0.382l1.449 14.829c0.463 0.031 0.846 0.232 1.147 0.533 0.351 0.351 0.585 0.848 0.702 1.376l0.429 1.943c0.047 0.208-0.086 0.414-0.294 0.46-0.029 0.005-0.055 0.010-0.083 0.010v0.003h-17.915c-0.214-0.001-0.387-0.174-0.387-0.389 0-0.039 0.006-0.076 0.016-0.111l-0.001 0.003 0.492-1.93c0.133-0.523 0.367-1.017 0.721-1.374 0.294-0.294 0.666-0.489 1.121-0.523l1.283-14.858c0.018-0.203 0.187-0.354 0.388-0.354h0.648v-2.274c0-0.174 0.070-0.33 0.185-0.445s0.271-0.185 0.445-0.185h0.442v-5.344h-0.473c-0.214-0.001-0.387-0.175-0.387-0.389 0-0.075 0.021-0.144 0.057-0.204l-0.001 0.002c0.437-0.833 1.080-1.53 1.852-2.016 0.656-0.411 1.405-0.671 2.206-0.736v-0.458c0-0.213 0.174-0.388 0.388-0.388s0.388 0.174 0.388 0.388v0.458c0.801 0.065 1.551 0.325 2.206 0.736 0.783 0.492 1.428 1.197 1.868 2.042 0.099 0.19 0.023 0.424-0.166 0.52-0.057 0.029-0.117 0.044-0.177 0.044h-0.476zM9.839 24.086l11.64-1.657 0.073 0.338-0.25-2.565-11.088 1.564c-0.057 0.008-0.117 0.008-0.174 0.003l-0.2 2.318zM21.664 23.904l-11.954 1.704-0.174 2.032h12.496l-0.367-3.736zM10.17 20.264l10.87-1.532c0.039-0.005 0.078-0.008 0.117-0.005l-0.224-2.302-10.552 1.384-0.211 2.456zM10.511 16.291l10.276-1.348-0.169-1.735h-9.839l-0.268 3.083zM22.259 8.45c-0.237-0.076-0.406-0.294-0.406-0.552 0-0.061 0.009-0.12 0.027-0.175l-0.001 0.004c0.076-0.237 0.294-0.406 0.552-0.406 0.061 0 0.12 0.009 0.175 0.027l-0.004-0.001 6.91 2.165c0.304 0.094 0.474 0.419 0.38 0.723-0.076 0.237-0.294 0.406-0.552 0.406-0.061 0-0.12-0.009-0.175-0.027l0.004 0.001-6.91-2.165zM22.684 4.607c-0.286 0.141-0.632 0.021-0.77-0.265-0.14-0.286-0.021-0.632 0.265-0.77l6.715-3.288c0.286-0.141 0.632-0.021 0.77 0.265 0.14 0.286 0.021 0.632-0.265 0.77l-6.715 3.288zM9.267 7.347c0.304-0.094 0.63 0.075 0.723 0.38s-0.075 0.63-0.38 0.723l-6.91 2.162c-0.304 0.094-0.63-0.075-0.723-0.38s0.075-0.63 0.38-0.723l6.91-2.162zM9.691 3.572c0.286 0.14 0.403 0.484 0.265 0.77-0.096 0.193-0.292 0.323-0.518 0.323-0.092 0-0.178-0.021-0.255-0.059l0.003 0.002-6.717-3.288c-0.193-0.096-0.323-0.292-0.323-0.518 0-0.318 0.258-0.577 0.577-0.577 0.092 0 0.18 0.022 0.257 0.060l-0.003-0.002 6.715 3.288zM16.172 4.321v5.073h2.485v-5.073h-2.485zM15.396 9.397v-5.073h-2.485v5.073h2.485z"></path>
</svg>
