<!-- Generated by IcoMoon.io -->
<svg version="1.1" xmlns="http://www.w3.org/2000/svg" width="32" height="32" viewBox="0 0 32 32">
<title>paw-icon</title>
<path d="M10.812 0.096c2.446 0 4.431 3.041 4.431 6.79s-1.985 6.79-4.431 6.79c-2.446 0-4.431-3.039-4.431-6.79 0.003-3.749 1.985-6.79 4.431-6.79v0zM16.445 16.533c5.188 0.010 5.833 3.447 10.206 9.329 2.18 4.28-0.65 6.978-5.502 5.822-2.201-1.121-3.749-1.517-5.302-1.465-2.69 0.094-3.369 1.868-6.499 1.743-2.414-0.065-3.502-1.077-3.713-2.62-0.226-1.639 0.406-2.674 1.176-4.030 2.992-5.276 6.085-9.441 9.634-8.78v0 0zM2.256 10.167c-1.829 0.723-2.412 3.582-1.303 6.384s3.489 4.488 5.318 3.765c1.829-0.723 2.412-3.582 1.303-6.384s-3.489-4.488-5.318-3.765v0zM29.672 10.167c1.829 0.723 2.412 3.582 1.303 6.384s-3.491 4.488-5.318 3.765c-1.829-0.723-2.412-3.582-1.303-6.384s3.489-4.488 5.318-3.765v0zM21.034 0c2.446 0 4.431 3.041 4.431 6.79s-1.985 6.79-4.431 6.79c-2.446 0-4.431-3.039-4.431-6.79 0.003-3.749 1.985-6.79 4.431-6.79v0z"></path>
</svg>
