<!-- Generated by IcoMoon.io -->
<svg version="1.1" xmlns="http://www.w3.org/2000/svg" width="32" height="32" viewBox="0 0 32 32">
<title>penguin-icon</title>
<path d="M10.628 8.060l-0.161 2.089c-0.203 0.609-0.453 1.199-0.744 1.769-1.467 2.87-3.236 4.607-5.83 6.538-0.77 1.595 2.271 1.99 4.069 0.968-0.471 4.844 0.359 8.229 2.253 10.417-0.752 0.265-1.106 0.762-1.212 1.405 0.312 0.245 0.723 0.302 1.236 0.169l0.388-0.265c0.297 0.294 0.637 0.575 1.067 0.825 0.382-0.18 0.728-0.403 1.022-0.695 0.312 0.265 0.892 0.315 1.449 0.138 0.031-0.697-0.32-1.080-0.799-1.355l0.968-1.14c1.041 0.271 2.084 0.265 3.125 0.073 0.216 0.434 0.546 0.799 1.067 1.041-0.398 0.304-0.679 0.726-0.825 1.283 0.697 0.278 1.225 0.185 1.647-0.146 0.489 0.239 0.718 0.526 1.017 0.799l1.041-0.726c0.606 0.367 1.074 0.377 1.405 0.023 0.104-0.684-0.447-1.127-1.259-1.478 2.214-2.5 3.041-5.96 2.422-10.417 0.565 0.372 1.147 0.606 1.756 0.674 2.812 0.312 3.325-1.298 0.497-3.073-2.032-1.748-3.66-3.991-4.73-6.92-0.195-1.754-0.31-3.772-0.395-5.89-0.026-0.692-0.182-1.301-0.458-1.829-1.316-2.518-5.724-2.911-7.987-1.613-0.669 0.385-1.215 0.965-1.506 1.946-0.437 1.486-0.299 3.458-0.52 5.391zM13.169 5.627c0-0.198 0.081-0.377 0.208-0.505v0c0.13-0.13 0.307-0.211 0.505-0.211s0.377 0.081 0.505 0.208c0.13 0.13 0.208 0.307 0.208 0.505h-0.221c0-0.135-0.055-0.26-0.143-0.349s-0.213-0.143-0.349-0.143c-0.135 0-0.26 0.055-0.349 0.143v0c-0.088 0.088-0.143 0.213-0.143 0.349h-0.221v0.003zM15.017 6.145c0.833-0.549 1.022-0.565 1.878-0.047 0.643 0.388-0.687 2.479-0.905 2.901-0.211-0.414-1.519-2.495-0.973-2.854v0zM13.882 5.31c0.177 0 0.32 0.143 0.32 0.32s-0.143 0.32-0.32 0.32c-0.177 0-0.32-0.143-0.32-0.32s0.146-0.32 0.32-0.32v0zM18.001 5.31c0.177 0 0.32 0.143 0.32 0.32s-0.143 0.32-0.32 0.32c-0.177 0-0.32-0.143-0.32-0.32s0.143-0.32 0.32-0.32v0zM17.285 5.627c0-0.198 0.081-0.377 0.208-0.505 0.13-0.13 0.307-0.208 0.505-0.208s0.375 0.081 0.505 0.211v0c0.13 0.13 0.208 0.307 0.208 0.505h-0.221c0-0.135-0.055-0.26-0.143-0.349v0c-0.088-0.088-0.211-0.143-0.349-0.143-0.135 0-0.26 0.055-0.349 0.143s-0.143 0.213-0.143 0.349h-0.221v-0.003zM16.005 4.451c0.169-0.872 0.385-1.668 0.869-2.128 1.545-1.478 3.197 0.003 3.559 1.941v1.041c0 0.926 0.003 1.709-0.406 2.581-0.271 0.575-0.658 1.004-1.132 1.329 0.596 0.052 1.085 0.315 1.296 1.127l1.821 8.2c0.593 2.235 0.783 6.254-0.549 8.247-0.307 0.458-0.71 0.851-1.241 1.155-0.601 0.343-0.783 0.323-1.462 0.286-1.608-0.081-2.55-0.497-4.704 0.008-0.395 0.060-0.796 0.088-1.212 0.047-0.739-0.075-1.28-0.312-1.819-0.833-0.372-0.362-0.666-0.809-0.895-1.329-1.595-3.634 0.083-8.609 0.866-12.332l0.528-2.477c0.133-0.624 0.232-1.189 0.7-1.675 0.245-0.255 0.554-0.424 0.929-0.502-0.403-0.2-0.744-0.518-1.017-0.957-0.702-1.132-0.596-2.074-0.596-3.32 0.133-0.926 0.317-1.772 0.786-2.295 1.574-1.756 3.713-0.468 3.679 1.886v0z"></path>
</svg>
