<svg aria-hidden="true" style="position: absolute; width: 0; height: 0; overflow: hidden;" version="1.1" xmlns="http://www.w3.org/2000/svg" xmlns:xlink="http://www.w3.org/1999/xlink">
<defs>
<symbol id="icon-airplane" viewBox="0 0 32 32">
<path d="M24 19.999l-5.713-5.713 13.713-10.286-4-4-17.141 6.858-5.397-5.397c-1.556-1.556-3.728-1.928-4.828-0.828s-0.727 3.273 0.828 4.828l5.396 5.396-6.858 17.143 4 4 10.287-13.715 5.713 5.713v7.999h4l2-6 6-2v-4h-7.999z"></path>
</symbol>
<symbol id="icon-alarm" viewBox="0 0 32 32">
<path d="M16 4c-7.732 0-14 6.268-14 14s6.268 14 14 14 14-6.268 14-14-6.268-14-14-14zM16 29.25c-6.213 0-11.25-5.037-11.25-11.25s5.037-11.25 11.25-11.25c6.213 0 11.25 5.037 11.25 11.25s-5.037 11.25-11.25 11.25zM29.212 8.974c0.501-0.877 0.788-1.892 0.788-2.974 0-3.314-2.686-6-6-6-1.932 0-3.65 0.913-4.747 2.331 4.121 0.851 7.663 3.287 9.96 6.643v0zM12.748 2.331c-1.097-1.418-2.816-2.331-4.748-2.331-3.314 0-6 2.686-6 6 0 1.082 0.287 2.098 0.788 2.974 2.297-3.356 5.838-5.792 9.96-6.643z"></path>
<path d="M16 18v-8h-2v10h8v-2z"></path>
</symbol>
<symbol id="icon-anchor" viewBox="0 0 32 32">
<path d="M6.944 25.056c1.946 1.95 4.52 3.274 7.393 3.641l0.063 0.007v-12.704h-6.4v-3.2h6.4v-3.472c-1.88-0.679-3.2-2.448-3.2-4.525 0-2.651 2.149-4.8 4.8-4.8s4.8 2.149 4.8 4.8c0 2.077-1.32 3.847-3.167 4.515l-0.033 0.011v3.472h6.4v3.2h-6.4v12.704c2.936-0.374 5.51-1.698 7.456-3.648l0-0-2.272-2.272h9.056l-4.528 4.528c-2.895 2.894-6.895 4.685-11.312 4.685s-8.417-1.79-11.312-4.685l-4.528-4.528h9.056l-2.272 2.272zM16 6.4c0.884 0 1.6-0.716 1.6-1.6s-0.716-1.6-1.6-1.6v0c-0.884 0-1.6 0.716-1.6 1.6s0.716 1.6 1.6 1.6v0z"></path>
</symbol>
<symbol id="icon-brightness-up" viewBox="0 0 32 32">
<path d="M16 22.4c-3.535 0-6.4-2.865-6.4-6.4s2.865-6.4 6.4-6.4v0c3.535 0 6.4 2.865 6.4 6.4s-2.865 6.4-6.4 6.4v0zM14.4 1.6c0-0.884 0.716-1.6 1.6-1.6s1.6 0.716 1.6 1.6v0 3.2c0 0.884-0.716 1.6-1.6 1.6s-1.6-0.716-1.6-1.6v0-3.2zM25.040 4.704c0.295-0.343 0.73-0.559 1.215-0.559 0.884 0 1.6 0.716 1.6 1.6 0 0.485-0.216 0.92-0.557 1.213l-0.002 0.002-2.24 2.24c-0.295 0.343-0.73 0.559-1.215 0.559-0.884 0-1.6-0.716-1.6-1.6 0-0.485 0.216-0.92 0.557-1.213l0.002-0.002 2.24-2.24zM30.384 14.4c0.884 0 1.6 0.716 1.6 1.6s-0.716 1.6-1.6 1.6v0h-3.168c-0.884 0-1.6-0.716-1.6-1.6s0.716-1.6 1.6-1.6v0h3.168zM27.296 25.040c0.343 0.295 0.559 0.73 0.559 1.215 0 0.884-0.716 1.6-1.6 1.6-0.485 0-0.92-0.216-1.213-0.557l-0.002-0.002-2.24-2.24c-0.343-0.295-0.559-0.73-0.559-1.215 0-0.884 0.716-1.6 1.6-1.6 0.485 0 0.92 0.216 1.213 0.557l0.002 0.002 2.24 2.24zM17.6 30.384c0 0.884-0.716 1.6-1.6 1.6s-1.6-0.716-1.6-1.6v0-3.168c0-0.884 0.716-1.6 1.6-1.6s1.6 0.716 1.6 1.6v0 3.168zM6.96 27.296c-0.295 0.343-0.73 0.559-1.215 0.559-0.884 0-1.6-0.716-1.6-1.6 0-0.485 0.216-0.92 0.557-1.213l0.002-0.002 2.24-2.24c0.295-0.343 0.73-0.559 1.215-0.559 0.884 0 1.6 0.716 1.6 1.6 0 0.485-0.216 0.92-0.557 1.213l-0.002 0.002-2.24 2.24zM1.616 17.6c-0.884 0-1.6-0.716-1.6-1.6s0.716-1.6 1.6-1.6v0h3.168c0.884 0 1.6 0.716 1.6 1.6s-0.716 1.6-1.6 1.6v0h-3.168zM4.704 6.96c-0.343-0.295-0.559-0.73-0.559-1.215 0-0.884 0.716-1.6 1.6-1.6 0.485 0 0.92 0.216 1.213 0.557l0.002 0.002 2.24 2.24c0.343 0.295 0.559 0.73 0.559 1.215 0 0.884-0.716 1.6-1.6 1.6-0.485 0-0.92-0.216-1.213-0.557l-0.002-0.002-2.24-2.24z"></path>
</symbol>
<symbol id="icon-bug" viewBox="0 0 32 32">
<path d="M24.48 23.824l4.432 4.432c0.288 0.289 0.465 0.688 0.465 1.128s-0.178 0.839-0.465 1.128l0-0c-0.289 0.288-0.688 0.465-1.128 0.465s-0.839-0.178-1.128-0.465l0 0-4.144-4.128c-1.32 1.225-2.996 2.084-4.855 2.408l-0.057 0.008v-14.336c0-0.884-0.716-1.6-1.6-1.6s-1.6 0.716-1.6 1.6v0 14.336c-1.917-0.331-3.592-1.191-4.918-2.422l0.006 0.006-4.144 4.128c-0.289 0.288-0.688 0.465-1.128 0.465s-0.839-0.178-1.128-0.465l0 0c-0.288-0.289-0.465-0.688-0.465-1.128s0.178-0.839 0.465-1.128l4.432-4.432c-0.476-0.875-0.829-1.892-1.001-2.97l-0.007-0.054h-4.912c-0.884 0-1.6-0.716-1.6-1.6s0.716-1.6 1.6-1.6v0h4.8v-4.144l-4.912-4.912c-0.288-0.289-0.465-0.688-0.465-1.128s0.178-0.839 0.465-1.128l-0 0c0.289-0.288 0.688-0.465 1.128-0.465s0.839 0.178 1.128 0.465l3.36 3.36h17.792l3.36-3.36c0.289-0.288 0.688-0.465 1.128-0.465s0.839 0.178 1.128 0.465l-0-0c0.288 0.289 0.465 0.688 0.465 1.128s-0.178 0.839-0.465 1.128l-4.912 4.912v4.144h4.8c0.884 0 1.6 0.716 1.6 1.6s-0.716 1.6-1.6 1.6v0h-4.912c-0.16 1.072-0.512 2.096-1.008 3.024zM24 8h-16c0-4.418 3.582-8 8-8s8 3.582 8 8v0z"></path>
</symbol>
<symbol id="icon-buoy" viewBox="0 0 32 32">
<path d="M27.456 10.272c-1.266-2.488-3.24-4.462-5.655-5.694l-0.073-0.034-2.144 4.304c1.549 0.79 2.778 2.019 3.547 3.523l0.021 0.045 4.304-2.144zM27.456 21.728l-4.304-2.144c-0.79 1.549-2.019 2.778-3.523 3.547l-0.045 0.021 2.144 4.304c2.488-1.266 4.462-3.24 5.694-5.655l0.034-0.073zM10.272 4.544c-2.488 1.266-4.462 3.24-5.694 5.655l-0.034 0.073 4.304 2.144c0.79-1.549 2.019-2.778 3.523-3.547l0.045-0.021-2.144-4.304zM4.544 21.728c1.266 2.488 3.24 4.462 5.655 5.694l0.073 0.034 2.144-4.304c-1.549-0.79-2.778-2.019-3.547-3.523l-0.021-0.045-4.304 2.144zM16 32c-8.837 0-16-7.163-16-16s7.163-16 16-16v0c8.837 0 16 7.163 16 16s-7.163 16-16 16v0zM16 20.8c2.651 0 4.8-2.149 4.8-4.8s-2.149-4.8-4.8-4.8v0c-2.651 0-4.8 2.149-4.8 4.8s2.149 4.8 4.8 4.8v0z"></path>
</symbol>
<symbol id="icon-butterfly-icon" viewBox="0 0 32 32">
<path d="M16.036 13.276c0.77 0 1.397 1.759 1.397 3.931 0 2.17-0.624 3.931-1.397 3.931s-1.397-1.759-1.397-3.931c0.003-2.172 0.627-3.931 1.397-3.931v0zM14.855 11.822c-0.036-0.060-0.060-0.13-0.070-0.203-0.252-1.694-0.762-3.335-1.46-4.803-0.645-1.358-1.449-2.563-2.352-3.523-0.182 0.101-0.393 0.161-0.617 0.161-0.702 0-1.272-0.57-1.272-1.272-0.003-0.702 0.567-1.272 1.27-1.272s1.272 0.57 1.272 1.272c0 0.057-0.005 0.114-0.010 0.169 1.054 1.074 1.985 2.443 2.719 3.988 0.713 1.499 1.244 3.166 1.522 4.891 0.096-0.013 0.193-0.016 0.289-0.005 0.034 0.003 0.068 0.008 0.099 0.016 0.278-1.727 0.809-3.4 1.525-4.901 0.734-1.545 1.665-2.914 2.719-3.988-0.008-0.055-0.010-0.112-0.010-0.169 0-0.702 0.57-1.272 1.272-1.272s1.272 0.57 1.272 1.272c0 0.702-0.57 1.272-1.272 1.272-0.224 0-0.434-0.057-0.617-0.161-0.903 0.96-1.707 2.165-2.352 3.523-0.697 1.467-1.21 3.109-1.459 4.803-0.016 0.101-0.057 0.195-0.117 0.271 0.172 0.208 0.338 0.46 0.497 0.752 0.908-1.949 2.159-3.624 3.718-5.058 1.751-1.608 3.887-2.906 6.361-3.934 0.010-0.005 0.021-0.008 0.031-0.010v0c0.775-0.242 1.457-0.362 2.034-0.323 0.632 0.044 1.145 0.276 1.522 0.744 0.541 0.669 0.65 1.878 0.593 3.109-0.057 1.181-0.263 2.373-0.388 3.080-0.263 1.48-0.58 3.010-1.189 4.381-0.622 1.397-1.54 2.612-3 3.408-0.432 0.237-0.885 0.424-1.358 0.567-0.164 0.049-0.333 0.094-0.505 0.133l0.021 0.013c1.324 0.825 2.711 1.691 2.901 3.346 0.049 0.427-0.042 1.153-0.185 1.917-0.195 1.038-0.494 2.172-0.676 2.706-0.242 0.713-0.645 1.793-1.218 2.682-0.617 0.96-1.431 1.709-2.461 1.629-1.491-0.114-2.76-1.27-3.793-2.802-1.27-1.886-2.193-4.366-2.698-6.093-0.393 0.562-0.827 0.864-1.311 0.869-0.499 0.005-1.004-0.312-1.514-0.996-0.349 1.355-1.069 3.382-2.019 5.159-1.212 2.271-2.815 4.152-4.571 3.884-0.010-0.003-0.021-0.003-0.031-0.005h-0.005c-0.206-0.036-0.408-0.099-0.604-0.19-1.244-0.575-2.274-2.248-2.932-4.079-0.65-1.803-0.95-3.78-0.744-4.995 0.044-0.252 0.107-0.476 0.195-0.666 0.226-0.489 0.562-0.913 0.952-1.283 0.377-0.359 0.809-0.666 1.241-0.926 0.143-0.088 0.289-0.169 0.437-0.247-0.187-0.029-0.375-0.065-0.565-0.109-0.697-0.159-1.27-0.343-1.782-0.637-0.52-0.299-0.973-0.705-1.421-1.303-0.83-1.111-1.371-2.31-1.748-3.567-0.372-1.238-0.583-2.531-0.76-3.848v0l-0.023-0.182c-0.219-1.618-0.546-4.043 0.791-5.318 0.843-0.804 2.378-0.507 4.025 0.25 2.453 1.126 5.24 3.291 6.077 4.163 0.684 0.71 1.316 1.501 1.889 2.38 0.445 0.684 0.853 1.421 1.223 2.217 0.213-0.369 0.429-0.661 0.643-0.885v0zM6.884 13.094c0.122 0.094 0.146 0.268 0.052 0.39s-0.268 0.146-0.39 0.052c-0.523-0.401-1.064-0.778-1.618-1.127-0.557-0.351-1.132-0.676-1.725-0.976-0.138-0.070-0.193-0.237-0.122-0.375s0.237-0.193 0.375-0.122c0.609 0.307 1.199 0.64 1.772 1.002 0.57 0.359 1.124 0.744 1.657 1.155v0zM24.583 18.076c0.052 0.005 0.104 0.021 0.148 0.044 0.369-0.049 0.728-0.125 1.074-0.229 0.427-0.127 0.833-0.297 1.215-0.507 1.293-0.708 2.115-1.798 2.677-3.059 0.572-1.288 0.879-2.771 1.134-4.204 0.122-0.692 0.325-1.863 0.38-2.987 0.052-1.074-0.026-2.107-0.427-2.604-0.237-0.294-0.572-0.44-0.996-0.468-0.476-0.034-1.061 0.073-1.743 0.284-2.386 0.994-4.446 2.243-6.127 3.788-1.678 1.538-2.981 3.374-3.863 5.547v0c-0.036 0.088-0.104 0.164-0.2 0.203-0.19 0.081-0.406-0.008-0.486-0.198-0.437-1.041-0.872-1.67-1.303-1.717-0.419-0.047-0.929 0.471-1.553 1.717-0.036 0.088-0.107 0.161-0.2 0.2-0.19 0.078-0.408-0.010-0.486-0.2-0.429-1.028-0.918-1.954-1.465-2.794-0.546-0.838-1.15-1.592-1.8-2.269-0.804-0.838-3.484-2.916-5.851-4.006-1.387-0.637-2.633-0.931-3.205-0.388-1.061 1.015-0.762 3.216-0.565 4.68l0.023 0.182v0.003c0.172 1.277 0.377 2.534 0.736 3.733 0.354 1.181 0.859 2.305 1.629 3.335 0.382 0.51 0.762 0.853 1.197 1.103 0.442 0.255 0.95 0.416 1.577 0.559 0.312 0.070 0.627 0.122 0.942 0.156 0.19 0.021 0.38 0.034 0.567 0.042 0.018-0.005 0.039-0.008 0.060-0.010l6.088-0.695c0.25-0.029 0.476 0.151 0.502 0.401 0.029 0.25-0.151 0.476-0.401 0.502l-6.088 0.695c-0.026 0.003-0.052 0.003-0.075 0.003-0.148 0.062-0.297 0.127-0.442 0.195-0.281 0.133-0.552 0.276-0.804 0.429-0.388 0.234-0.773 0.51-1.111 0.83-0.328 0.31-0.606 0.661-0.788 1.056-0.060 0.13-0.107 0.291-0.138 0.479-0.187 1.101 0.099 2.929 0.708 4.62 0.598 1.665 1.501 3.169 2.544 3.653 0.135 0.062 0.276 0.107 0.414 0.13v0h0.003c0.008 0 0.016 0.003 0.023 0.003 1.361 0.208 2.726-1.478 3.804-3.497 1.127-2.107 1.917-4.566 2.12-5.744 0.003-0.008 0.005-0.034 0.013-0.083v0c0.016-0.109 0.083-0.211 0.187-0.271 0.18-0.099 0.406-0.036 0.505 0.143 0.533 0.96 0.981 1.402 1.355 1.4 0.356-0.005 0.721-0.44 1.095-1.238 0.044-0.107 0.135-0.193 0.255-0.221 0.2-0.049 0.401 0.073 0.45 0.273 0.398 1.613 1.381 4.581 2.833 6.738 0.916 1.358 2.008 2.383 3.229 2.477 0.695 0.052 1.298-0.533 1.779-1.288 0.528-0.825 0.911-1.842 1.137-2.516 0.172-0.51 0.46-1.603 0.65-2.607 0.133-0.702 0.216-1.35 0.177-1.696-0.151-1.296-1.381-2.066-2.555-2.797-0.211-0.13-0.419-0.263-0.63-0.398-0.010 0-0.023-0.003-0.034-0.003l-6.088-0.695c-0.25-0.029-0.429-0.255-0.401-0.502 0.029-0.25 0.255-0.429 0.502-0.401l6.093 0.689zM20.662 13.208c-0.094 0.122-0.268 0.146-0.39 0.052s-0.146-0.268-0.052-0.39c1.168-1.527 2.438-2.911 3.827-4.121 1.394-1.212 2.911-2.253 4.574-3.091 0.138-0.070 0.304-0.013 0.375 0.122 0.070 0.138 0.013 0.304-0.122 0.375-1.618 0.814-3.096 1.829-4.457 3.015-1.366 1.186-2.609 2.542-3.754 4.038v0zM25.53 13.536c-0.122 0.094-0.297 0.070-0.39-0.052s-0.070-0.297 0.052-0.39c0.533-0.408 1.087-0.796 1.66-1.155 0.572-0.362 1.163-0.695 1.772-1.002 0.138-0.070 0.304-0.013 0.375 0.122 0.070 0.138 0.013 0.304-0.122 0.375-0.593 0.299-1.168 0.624-1.725 0.976-0.559 0.349-1.098 0.726-1.621 1.127v0zM22.98 13.162c-0.107 0.109-0.284 0.112-0.395 0.003-0.109-0.107-0.112-0.284-0.003-0.395 0.892-0.911 1.834-1.743 2.836-2.49 1.004-0.749 2.068-1.413 3.203-1.985 0.138-0.070 0.304-0.013 0.375 0.122 0.070 0.138 0.013 0.304-0.122 0.375-1.101 0.554-2.139 1.202-3.119 1.933-0.981 0.739-1.904 1.551-2.773 2.438v0zM11.856 12.87c0.094 0.122 0.070 0.297-0.052 0.39s-0.297 0.070-0.39-0.052c-1.145-1.496-2.388-2.851-3.752-4.038-1.361-1.184-2.841-2.198-4.457-3.015-0.138-0.070-0.193-0.237-0.122-0.375s0.237-0.193 0.375-0.122c1.662 0.838 3.179 1.878 4.574 3.091 1.387 1.21 2.656 2.594 3.824 4.121v0zM9.491 12.771c0.107 0.109 0.107 0.286-0.003 0.395s-0.286 0.107-0.395-0.003c-0.869-0.887-1.793-1.701-2.773-2.433s-2.019-1.379-3.119-1.933c-0.138-0.070-0.193-0.237-0.122-0.375s0.237-0.193 0.375-0.122c1.134 0.572 2.198 1.236 3.203 1.985 1.002 0.741 1.946 1.574 2.836 2.485v0z"></path>
</symbol>
<symbol id="icon-calendar" viewBox="0 0 32 32">
<path d="M1.6 6.4c0-1.76 1.44-3.2 3.2-3.2h22.4c1.767 0 3.2 1.433 3.2 3.2v0 22.4c0 1.767-1.433 3.2-3.2 3.2v0h-22.4c-1.767 0-3.2-1.433-3.2-3.2v0-22.4zM4.8 9.6v19.2h22.4v-19.2h-22.4zM8 0h3.2v3.2h-3.2v-3.2zM20.8 0h3.2v3.2h-3.2v-3.2zM8 14.4h3.2v3.2h-3.2v-3.2zM8 20.8h3.2v3.2h-3.2v-3.2zM14.4 14.4h3.2v3.2h-3.2v-3.2zM14.4 20.8h3.2v3.2h-3.2v-3.2zM20.8 14.4h3.2v3.2h-3.2v-3.2zM20.8 20.8h3.2v3.2h-3.2v-3.2z"></path>
</symbol>
<symbol id="icon-camera" viewBox="0 0 32 32">
<path d="M9.5 19c0 3.59 2.91 6.5 6.5 6.5s6.5-2.91 6.5-6.5-2.91-6.5-6.5-6.5-6.5 2.91-6.5 6.5zM30 8h-7c-0.5-2-1-4-3-4h-8c-2 0-2.5 2-3 4h-7c-1.1 0-2 0.9-2 2v18c0 1.1 0.9 2 2 2h28c1.1 0 2-0.9 2-2v-18c0-1.1-0.9-2-2-2zM16 27.875c-4.902 0-8.875-3.973-8.875-8.875s3.973-8.875 8.875-8.875c4.902 0 8.875 3.973 8.875 8.875s-3.973 8.875-8.875 8.875zM30 14h-4v-2h4v2z"></path>
</symbol>
<symbol id="icon-coffee" viewBox="0 0 32 32">
<path d="M6.4 17.6h-3.2c-1.767 0-3.2-1.433-3.2-3.2v0-6.4c0-1.76 1.44-3.2 3.2-3.2h3.2v-3.2h22.4v16c0 3.535-2.865 6.4-6.4 6.4v0h-9.6c-3.535 0-6.4-2.865-6.4-6.4v0zM6.4 14.4v-6.4h-3.2v6.4h3.2zM3.2 27.2v-1.6h28.8v1.6l-6.4 3.2h-16l-6.4-3.2z"></path>
</symbol>
<symbol id="icon-computer-laptop" viewBox="0 0 32 32">
<path d="M28.8 25.6h3.2v1.6c0 0.884-0.716 1.6-1.6 1.6v0h-28.8c-0.884 0-1.6-0.716-1.6-1.6v0-1.6h3.2v-19.2c0-1.76 1.44-3.2 3.2-3.2h19.2c1.767 0 3.2 1.433 3.2 3.2v0 19.2zM6.4 6.4v14.4h19.2v-14.4h-19.2zM12.8 24v1.6h6.4v-1.6h-6.4z"></path>
</symbol>
<symbol id="icon-credit-card" viewBox="0 0 32 32">
<path d="M28.8 9.6v-3.2h-25.6v3.2h25.6zM28.8 16h-25.6v9.6h25.6v-9.6zM0 6.4c0-1.76 1.44-3.2 3.2-3.2h25.6c1.767 0 3.2 1.433 3.2 3.2v0 19.2c0 1.767-1.433 3.2-3.2 3.2v0h-25.6c-1.767 0-3.2-1.433-3.2-3.2v0-19.2zM6.4 19.2h6.4v3.2h-6.4v-3.2z"></path>
</symbol>
<symbol id="icon-earth" viewBox="0 0 32 32">
<path d="M16 0c-8.837 0-16 7.163-16 16s7.163 16 16 16 16-7.163 16-16-7.163-16-16-16zM16 30c-1.967 0-3.84-0.407-5.538-1.139l7.286-8.197c0.163-0.183 0.253-0.419 0.253-0.664v-3c0-0.552-0.448-1-1-1-3.531 0-7.256-3.671-7.293-3.707-0.188-0.188-0.442-0.293-0.707-0.293h-4c-0.552 0-1 0.448-1 1v6c0 0.379 0.214 0.725 0.553 0.894l3.447 1.724v5.871c-3.627-2.53-6-6.732-6-11.489 0-2.147 0.484-4.181 1.348-6h3.652c0.265 0 0.52-0.105 0.707-0.293l4-4c0.188-0.188 0.293-0.442 0.293-0.707v-2.419c1.268-0.377 2.61-0.581 4-0.581 2.2 0 4.281 0.508 6.134 1.412-0.13 0.109-0.256 0.224-0.376 0.345-1.133 1.133-1.757 2.64-1.757 4.243s0.624 3.109 1.757 4.243c1.139 1.139 2.663 1.758 4.239 1.758 0.099 0 0.198-0.002 0.297-0.007 0.432 1.619 1.211 5.833-0.263 11.635-0.014 0.055-0.022 0.109-0.026 0.163-2.541 2.596-6.084 4.208-10.004 4.208z"></path>
</symbol>
<symbol id="icon-gift" viewBox="0 0 32 32">
<path d="M23.728 6.4h8.272v9.6h-1.6v16h-28.8v-16h-1.6v-9.6h8.272c-0.177-0.48-0.279-1.034-0.279-1.613 0-2.651 2.149-4.8 4.8-4.8 1.235 0 2.361 0.466 3.211 1.232l-0.004-0.004c0.846-0.762 1.972-1.229 3.207-1.229 2.651 0 4.8 2.149 4.8 4.8 0 0.578-0.102 1.133-0.29 1.646l0.011-0.033zM12.8 16h-8v12.8h8v-12.8zM19.2 16v12.8h8v-12.8h-8zM12.8 9.6h-9.6v3.2h9.6v-3.2zM19.2 9.6v3.2h9.6v-3.2h-9.6zM12.8 6.4c0.884 0 1.6-0.716 1.6-1.6s-0.716-1.6-1.6-1.6v0c-0.884 0-1.6 0.716-1.6 1.6s0.716 1.6 1.6 1.6v0zM19.2 6.4c0.884 0 1.6-0.716 1.6-1.6s-0.716-1.6-1.6-1.6v0c-0.884 0-1.6 0.716-1.6 1.6s0.716 1.6 1.6 1.6v0z"></path>
</symbol>
<symbol id="icon-glass2" viewBox="0 0 32 32">
<path d="M27.786 5.618c0.236-0.301 0.28-0.711 0.113-1.055s-0.517-0.563-0.899-0.563h-22c-0.383 0-0.732 0.219-0.899 0.563s-0.123 0.754 0.113 1.055l9.786 12.455v11.927h-3c-0.552 0-1 0.448-1 1s0.448 1 1 1h10c0.552 0 1-0.448 1-1s-0.448-1-1-1h-3v-11.927l9.786-12.455zM24.943 6l-3.143 4h-11.599l-3.143-4h17.885z"></path>
</symbol>
<symbol id="icon-heart" viewBox="0 0 32 32">
<path d="M23.6 2c-3.363 0-6.258 2.736-7.599 5.594-1.342-2.858-4.237-5.594-7.601-5.594-4.637 0-8.4 3.764-8.4 8.401 0 9.433 9.516 11.906 16.001 21.232 6.13-9.268 15.999-12.1 15.999-21.232 0-4.637-3.763-8.401-8.4-8.401z"></path>
</symbol>
<symbol id="icon-home" viewBox="0 0 32 32">
<path d="M12.8 32h-8v-16h-4.8l16-16 16 16h-4.8v16h-8v-9.6h-6.4v9.6z"></path>
</symbol>
<symbol id="icon-lighthouse-icon" viewBox="0 0 32 32">
<path d="M19.429 4.189v5.341h0.442c0.174 0 0.33 0.070 0.445 0.185s0.185 0.271 0.185 0.445v2.274h0.468c0.213 0 0.385 0.172 0.388 0.382l1.449 14.829c0.463 0.031 0.846 0.232 1.147 0.533 0.351 0.351 0.585 0.848 0.702 1.376l0.429 1.943c0.047 0.208-0.086 0.414-0.294 0.46-0.029 0.005-0.055 0.010-0.083 0.010v0.003h-17.915c-0.214-0.001-0.387-0.174-0.387-0.389 0-0.039 0.006-0.076 0.016-0.111l-0.001 0.003 0.492-1.93c0.133-0.523 0.367-1.017 0.721-1.374 0.294-0.294 0.666-0.489 1.121-0.523l1.283-14.858c0.018-0.203 0.187-0.354 0.388-0.354h0.648v-2.274c0-0.174 0.070-0.33 0.185-0.445s0.271-0.185 0.445-0.185h0.442v-5.344h-0.473c-0.214-0.001-0.387-0.175-0.387-0.389 0-0.075 0.021-0.144 0.057-0.204l-0.001 0.002c0.437-0.833 1.080-1.53 1.852-2.016 0.656-0.411 1.405-0.671 2.206-0.736v-0.458c0-0.213 0.174-0.388 0.388-0.388s0.388 0.174 0.388 0.388v0.458c0.801 0.065 1.551 0.325 2.206 0.736 0.783 0.492 1.428 1.197 1.868 2.042 0.099 0.19 0.023 0.424-0.166 0.52-0.057 0.029-0.117 0.044-0.177 0.044h-0.476zM9.839 24.086l11.64-1.657 0.073 0.338-0.25-2.565-11.088 1.564c-0.057 0.008-0.117 0.008-0.174 0.003l-0.2 2.318zM21.664 23.904l-11.954 1.704-0.174 2.032h12.496l-0.367-3.736zM10.17 20.264l10.87-1.532c0.039-0.005 0.078-0.008 0.117-0.005l-0.224-2.302-10.552 1.384-0.211 2.456zM10.511 16.291l10.276-1.348-0.169-1.735h-9.839l-0.268 3.083zM22.259 8.45c-0.237-0.076-0.406-0.294-0.406-0.552 0-0.061 0.009-0.12 0.027-0.175l-0.001 0.004c0.076-0.237 0.294-0.406 0.552-0.406 0.061 0 0.12 0.009 0.175 0.027l-0.004-0.001 6.91 2.165c0.304 0.094 0.474 0.419 0.38 0.723-0.076 0.237-0.294 0.406-0.552 0.406-0.061 0-0.12-0.009-0.175-0.027l0.004 0.001-6.91-2.165zM22.684 4.607c-0.286 0.141-0.632 0.021-0.77-0.265-0.14-0.286-0.021-0.632 0.265-0.77l6.715-3.288c0.286-0.141 0.632-0.021 0.77 0.265 0.14 0.286 0.021 0.632-0.265 0.77l-6.715 3.288zM9.267 7.347c0.304-0.094 0.63 0.075 0.723 0.38s-0.075 0.63-0.38 0.723l-6.91 2.162c-0.304 0.094-0.63-0.075-0.723-0.38s0.075-0.63 0.38-0.723l6.91-2.162zM9.691 3.572c0.286 0.14 0.403 0.484 0.265 0.77-0.096 0.193-0.292 0.323-0.518 0.323-0.092 0-0.178-0.021-0.255-0.059l0.003 0.002-6.717-3.288c-0.193-0.096-0.323-0.292-0.323-0.518 0-0.318 0.258-0.577 0.577-0.577 0.092 0 0.18 0.022 0.257 0.060l-0.003-0.002 6.715 3.288zM16.172 4.321v5.073h2.485v-5.073h-2.485zM15.396 9.397v-5.073h-2.485v5.073h2.485z"></path>
</symbol>
<symbol id="icon-location" viewBox="0 0 32 32">
<path d="M16 32s-11.2-14.608-11.2-20.8c0-6.186 5.014-11.2 11.2-11.2s11.2 5.014 11.2 11.2v0c0 6.192-11.2 20.8-11.2 20.8zM16 14.4c1.767 0 3.2-1.433 3.2-3.2s-1.433-3.2-3.2-3.2v0c-1.767 0-3.2 1.433-3.2 3.2s1.433 3.2 3.2 3.2v0z"></path>
</symbol>
<symbol id="icon-location-current" viewBox="0 0 32 32">
<path d="M0 0l32 12.8-12.8 6.4-3.2 12.8z"></path>
</symbol>
<symbol id="icon-location-marina" viewBox="0 0 32 32">
<path d="M12.8 3.008v-3.008h3.2v25.6h16l-6.4 6.4h-22.4l-3.2-6.4h12.8v-3.2h-12.8v-0.416c5.978-4.814 10.446-11.28 12.728-18.704l0.072-0.272zM31.952 22.4h-15.952v-0.576c2.021-2.984 3.227-6.663 3.227-10.624s-1.205-7.64-3.27-10.691l0.043 0.067v-0.32c8.974 3.704 15.305 12.111 15.948 22.069l0.004 0.075z"></path>
</symbol>
<symbol id="icon-location-park" viewBox="0 0 32 32">
<path d="M8.528 20.432c-0.656 0.249-1.415 0.393-2.207 0.393-3.535 0-6.4-2.865-6.4-6.4 0-2.995 2.057-5.509 4.835-6.207l0.044-0.009v-0.208c0-0.002 0-0.004 0-0.006 0-3.535 2.865-6.4 6.4-6.4 0.994 0 1.935 0.227 2.774 0.631l-0.038-0.017c1.033-1.353 2.647-2.218 4.463-2.218 2.837 0 5.181 2.109 5.55 4.845l0.003 0.029c1.661 0.327 2.938 1.648 3.197 3.305l0.003 0.023c2.796 0.726 4.828 3.228 4.828 6.204 0 3.535-2.865 6.4-6.4 6.4-0.999 0-1.944-0.229-2.786-0.637l0.038 0.017c-0.866 1.391-2.107 2.477-3.581 3.132l-0.051 0.020v5.472l3.2 1.6v1.6h-12.8v-1.6l3.2-1.6v-4.8l-4.272-3.568zM8 16l4.8 4.8v-4.8h-4.8z"></path>
</symbol>
<symbol id="icon-paw-icon" viewBox="0 0 32 32">
<path d="M10.812 0.096c2.446 0 4.431 3.041 4.431 6.79s-1.985 6.79-4.431 6.79c-2.446 0-4.431-3.039-4.431-6.79 0.003-3.749 1.985-6.79 4.431-6.79v0zM16.445 16.533c5.188 0.010 5.833 3.447 10.206 9.329 2.18 4.28-0.65 6.978-5.502 5.822-2.201-1.121-3.749-1.517-5.302-1.465-2.69 0.094-3.369 1.868-6.499 1.743-2.414-0.065-3.502-1.077-3.713-2.62-0.226-1.639 0.406-2.674 1.176-4.030 2.992-5.276 6.085-9.441 9.634-8.78v0 0zM2.256 10.167c-1.829 0.723-2.412 3.582-1.303 6.384s3.489 4.488 5.318 3.765c1.829-0.723 2.412-3.582 1.303-6.384s-3.489-4.488-5.318-3.765v0zM29.672 10.167c1.829 0.723 2.412 3.582 1.303 6.384s-3.491 4.488-5.318 3.765c-1.829-0.723-2.412-3.582-1.303-6.384s3.489-4.488 5.318-3.765v0zM21.034 0c2.446 0 4.431 3.041 4.431 6.79s-1.985 6.79-4.431 6.79c-2.446 0-4.431-3.039-4.431-6.79 0.003-3.749 1.985-6.79 4.431-6.79v0z"></path>
</symbol>
<symbol id="icon-penguin-icon" viewBox="0 0 32 32">
<path d="M10.628 8.060l-0.161 2.089c-0.203 0.609-0.453 1.199-0.744 1.769-1.467 2.87-3.236 4.607-5.83 6.538-0.77 1.595 2.271 1.99 4.069 0.968-0.471 4.844 0.359 8.229 2.253 10.417-0.752 0.265-1.106 0.762-1.212 1.405 0.312 0.245 0.723 0.302 1.236 0.169l0.388-0.265c0.297 0.294 0.637 0.575 1.067 0.825 0.382-0.18 0.728-0.403 1.022-0.695 0.312 0.265 0.892 0.315 1.449 0.138 0.031-0.697-0.32-1.080-0.799-1.355l0.968-1.14c1.041 0.271 2.084 0.265 3.125 0.073 0.216 0.434 0.546 0.799 1.067 1.041-0.398 0.304-0.679 0.726-0.825 1.283 0.697 0.278 1.225 0.185 1.647-0.146 0.489 0.239 0.718 0.526 1.017 0.799l1.041-0.726c0.606 0.367 1.074 0.377 1.405 0.023 0.104-0.684-0.447-1.127-1.259-1.478 2.214-2.5 3.041-5.96 2.422-10.417 0.565 0.372 1.147 0.606 1.756 0.674 2.812 0.312 3.325-1.298 0.497-3.073-2.032-1.748-3.66-3.991-4.73-6.92-0.195-1.754-0.31-3.772-0.395-5.89-0.026-0.692-0.182-1.301-0.458-1.829-1.316-2.518-5.724-2.911-7.987-1.613-0.669 0.385-1.215 0.965-1.506 1.946-0.437 1.486-0.299 3.458-0.52 5.391zM13.169 5.627c0-0.198 0.081-0.377 0.208-0.505v0c0.13-0.13 0.307-0.211 0.505-0.211s0.377 0.081 0.505 0.208c0.13 0.13 0.208 0.307 0.208 0.505h-0.221c0-0.135-0.055-0.26-0.143-0.349s-0.213-0.143-0.349-0.143c-0.135 0-0.26 0.055-0.349 0.143v0c-0.088 0.088-0.143 0.213-0.143 0.349h-0.221v0.003zM15.017 6.145c0.833-0.549 1.022-0.565 1.878-0.047 0.643 0.388-0.687 2.479-0.905 2.901-0.211-0.414-1.519-2.495-0.973-2.854v0zM13.882 5.31c0.177 0 0.32 0.143 0.32 0.32s-0.143 0.32-0.32 0.32c-0.177 0-0.32-0.143-0.32-0.32s0.146-0.32 0.32-0.32v0zM18.001 5.31c0.177 0 0.32 0.143 0.32 0.32s-0.143 0.32-0.32 0.32c-0.177 0-0.32-0.143-0.32-0.32s0.143-0.32 0.32-0.32v0zM17.285 5.627c0-0.198 0.081-0.377 0.208-0.505 0.13-0.13 0.307-0.208 0.505-0.208s0.375 0.081 0.505 0.211v0c0.13 0.13 0.208 0.307 0.208 0.505h-0.221c0-0.135-0.055-0.26-0.143-0.349v0c-0.088-0.088-0.211-0.143-0.349-0.143-0.135 0-0.26 0.055-0.349 0.143s-0.143 0.213-0.143 0.349h-0.221v-0.003zM16.005 4.451c0.169-0.872 0.385-1.668 0.869-2.128 1.545-1.478 3.197 0.003 3.559 1.941v1.041c0 0.926 0.003 1.709-0.406 2.581-0.271 0.575-0.658 1.004-1.132 1.329 0.596 0.052 1.085 0.315 1.296 1.127l1.821 8.2c0.593 2.235 0.783 6.254-0.549 8.247-0.307 0.458-0.71 0.851-1.241 1.155-0.601 0.343-0.783 0.323-1.462 0.286-1.608-0.081-2.55-0.497-4.704 0.008-0.395 0.060-0.796 0.088-1.212 0.047-0.739-0.075-1.28-0.312-1.819-0.833-0.372-0.362-0.666-0.809-0.895-1.329-1.595-3.634 0.083-8.609 0.866-12.332l0.528-2.477c0.133-0.624 0.232-1.189 0.7-1.675 0.245-0.255 0.554-0.424 0.929-0.502-0.403-0.2-0.744-0.518-1.017-0.957-0.702-1.132-0.596-2.074-0.596-3.32 0.133-0.926 0.317-1.772 0.786-2.295 1.574-1.756 3.713-0.468 3.679 1.886v0z"></path>
</symbol>
<symbol id="icon-star-full" viewBox="0 0 32 32">
<path d="M16 24l-9.405 4.944 1.797-10.472-7.61-7.416 10.515-1.528 4.702-9.528 4.702 9.528 10.515 1.528-7.61 7.416 1.797 10.472z"></path>
</symbol>
<symbol id="icon-sun" viewBox="0 0 32 32">
<path d="M16 26c1.105 0 2 0.895 2 2v2c0 1.105-0.895 2-2 2s-2-0.895-2-2v-2c0-1.105 0.895-2 2-2zM16 6c-1.105 0-2-0.895-2-2v-2c0-1.105 0.895-2 2-2s2 0.895 2 2v2c0 1.105-0.895 2-2 2zM30 14c1.105 0 2 0.895 2 2s-0.895 2-2 2h-2c-1.105 0-2-0.895-2-2s0.895-2 2-2h2zM6 16c0 1.105-0.895 2-2 2h-2c-1.105 0-2-0.895-2-2s0.895-2 2-2h2c1.105 0 2 0.895 2 2zM25.899 23.071l1.414 1.414c0.781 0.781 0.781 2.047 0 2.828s-2.047 0.781-2.828 0l-1.414-1.414c-0.781-0.781-0.781-2.047 0-2.828s2.047-0.781 2.828 0zM6.101 8.929l-1.414-1.414c-0.781-0.781-0.781-2.047 0-2.828s2.047-0.781 2.828 0l1.414 1.414c0.781 0.781 0.781 2.047 0 2.828s-2.047 0.781-2.828 0zM25.899 8.929c-0.781 0.781-2.047 0.781-2.828 0s-0.781-2.047 0-2.828l1.414-1.414c0.781-0.781 2.047-0.781 2.828 0s0.781 2.047 0 2.828l-1.414 1.414zM6.101 23.071c0.781-0.781 2.047-0.781 2.828 0s0.781 2.047 0 2.828l-1.414 1.414c-0.781 0.781-2.047 0.781-2.828 0s-0.781-2.047 0-2.828l1.414-1.414z"></path>
<path d="M16 8c-4.418 0-8 3.582-8 8s3.582 8 8 8c4.418 0 8-3.582 8-8s-3.582-8-8-8zM16 21c-2.761 0-5-2.239-5-5s2.239-5 5-5 5 2.239 5 5-2.239 5-5 5z"></path>
</symbol>
<symbol id="icon-time" viewBox="0 0 32 32">
<path d="M16 32c-8.837 0-16-7.163-16-16s7.163-16 16-16v0c8.837 0 16 7.163 16 16s-7.163 16-16 16v0zM16 28.8c7.069 0 12.8-5.731 12.8-12.8s-5.731-12.8-12.8-12.8v0c-7.069 0-12.8 5.731-12.8 12.8s5.731 12.8 12.8 12.8v0zM14.4 16.656v-10.256h3.2v8.944l6.32 6.32-2.256 2.256-7.264-7.264z"></path>
</symbol>
<symbol id="icon-travel" viewBox="0 0 32 32">
<path d="M22.4 8h3.2v22.4h-19.2v-22.4h3.2v-1.6c0-1.767 1.433-3.2 3.2-3.2v0h6.4c1.767 0 3.2 1.433 3.2 3.2v0 1.6zM27.2 8h1.6c1.767 0 3.2 1.433 3.2 3.2v0 16c0 1.767-1.433 3.2-3.2 3.2v0h-1.6v-22.4zM4.8 8v22.4h-1.6c-1.767 0-3.2-1.433-3.2-3.2v0-16c0-1.76 1.44-3.2 3.2-3.2h1.6zM12.8 6.4v1.6h6.4v-1.6h-6.4z"></path>
</symbol>
<symbol id="icon-travel-bus" viewBox="0 0 32 32">
<path d="M20.8 28.8h-9.6v1.6c0 0.884-0.716 1.6-1.6 1.6v0h-1.6c-0.884 0-1.6-0.716-1.6-1.6v0-1.6c-1.767 0-3.2-1.433-3.2-3.2v0-22.4c0-1.76 1.44-3.2 3.2-3.2h19.2c1.767 0 3.2 1.433 3.2 3.2v0 22.4c0 1.767-1.433 3.2-3.2 3.2v0 1.6c0 0.884-0.716 1.6-1.6 1.6v0h-1.6c-0.884 0-1.6-0.716-1.6-1.6v0-1.6zM6.4 8v9.6h8v-9.6h-8zM17.6 8v9.6h8v-9.6h-8zM8 3.2v1.6h16v-1.6h-16zM8.8 25.6c1.325 0 2.4-1.075 2.4-2.4s-1.075-2.4-2.4-2.4v0c-1.325 0-2.4 1.075-2.4 2.4s1.075 2.4 2.4 2.4v0zM23.2 25.6c1.325 0 2.4-1.075 2.4-2.4s-1.075-2.4-2.4-2.4v0c-1.325 0-2.4 1.075-2.4 2.4s1.075 2.4 2.4 2.4v0z"></path>
</symbol>
<symbol id="icon-travel-car" viewBox="0 0 32 32">
<path d="M3.2 22.4v-4.8h-1.6c-0.884 0-1.6-0.716-1.6-1.6v0c0-0.884 0.716-1.6 1.6-1.6v0h1.6l6.4-11.2h12.8l6.4 11.2h1.6c0.884 0 1.6 0.716 1.6 1.6v0c0 0.884-0.716 1.6-1.6 1.6v0h-1.6v9.6c0 0.884-0.716 1.6-1.6 1.6v0h-1.6c-0.884 0-1.6-0.716-1.6-1.6v0-1.6h-16v1.6c0 0.884-0.716 1.6-1.6 1.6v0h-1.6c-0.884 0-1.6-0.716-1.6-1.6v0-4.8zM25.376 14.4l-4.576-8h-9.6l-4.576 8h18.752zM8.8 22.4c1.325 0 2.4-1.075 2.4-2.4s-1.075-2.4-2.4-2.4v0c-1.325 0-2.4 1.075-2.4 2.4s1.075 2.4 2.4 2.4v0zM23.2 22.4c1.325 0 2.4-1.075 2.4-2.4s-1.075-2.4-2.4-2.4v0c-1.325 0-2.4 1.075-2.4 2.4s1.075 2.4 2.4 2.4v0z"></path>
</symbol>
<symbol id="icon-travel-train" viewBox="0 0 32 32">
<path d="M19.2 28.8h-6.4l-3.2 3.2h-4.8l3.2-3.2c-1.767 0-3.2-1.433-3.2-3.2v0-22.4c0-1.76 1.44-3.2 3.2-3.2h16c1.767 0 3.2 1.433 3.2 3.2v0 22.4c0 1.767-1.433 3.2-3.2 3.2v0l3.2 3.2h-4.8l-3.2-3.2zM8 8v9.6h16v-9.6h-16zM10.4 25.6c1.325 0 2.4-1.075 2.4-2.4s-1.075-2.4-2.4-2.4v0c-1.325 0-2.4 1.075-2.4 2.4s1.075 2.4 2.4 2.4v0zM21.6 25.6c1.325 0 2.4-1.075 2.4-2.4s-1.075-2.4-2.4-2.4v0c-1.325 0-2.4 1.075-2.4 2.4s1.075 2.4 2.4 2.4v0zM12.8 3.2v1.6h6.4v-1.6h-6.4z"></path>
</symbol>
<symbol id="icon-travel-walk" viewBox="0 0 32 32">
<path d="M17.6 11.2l2.304 3.456c0.496 0.752 1.616 1.344 2.512 1.344h4.784v-3.2h-4.8l-2.304-3.456c-0.626-0.873-1.367-1.614-2.212-2.221l-0.029-0.019-2.112-1.408c-0.404-0.246-0.893-0.392-1.416-0.392-0.478 0-0.927 0.122-1.318 0.336l0.014-0.007-6.624 3.968v8h3.2v-6.4l3.2-1.6-4.8 22.4h3.2l3.76-12.24 2.64 2.64v9.6h3.2v-12.8l-4.32-4.32 1.12-3.68zM19.2 6.4c1.767 0 3.2-1.433 3.2-3.2s-1.433-3.2-3.2-3.2v0c-1.767 0-3.2 1.433-3.2 3.2s1.433 3.2 3.2 3.2v0z"></path>
</symbol>
<symbol id="icon-truck" viewBox="0 0 32 32">
<path d="M32 18l-4-8h-6v-4c0-1.1-0.9-2-2-2h-18c-1.1 0-2 0.9-2 2v16l2 2h2.536c-0.341 0.588-0.536 1.271-0.536 2 0 2.209 1.791 4 4 4s4-1.791 4-4c0-0.729-0.196-1.412-0.536-2h11.073c-0.341 0.588-0.537 1.271-0.537 2 0 2.209 1.791 4 4 4s4-1.791 4-4c0-0.729-0.196-1.412-0.537-2h2.537v-6zM22 18v-6h4.146l3 6h-7.146z"></path>
</symbol>
<symbol id="icon-video-camera" viewBox="0 0 32 32">
<path d="M12 9c0-2.761 2.239-5 5-5s5 2.239 5 5c0 2.761-2.239 5-5 5s-5-2.239-5-5zM0 9c0-2.761 2.239-5 5-5s5 2.239 5 5c0 2.761-2.239 5-5 5s-5-2.239-5-5zM24 19v-3c0-1.1-0.9-2-2-2h-20c-1.1 0-2 0.9-2 2v10c0 1.1 0.9 2 2 2h20c1.1 0 2-0.9 2-2v-3l8 5v-14l-8 5zM20 24h-16v-6h16v6z"></path>
</symbol>
<symbol id="icon-wallet" viewBox="0 0 32 32">
<path d="M0 6.4c0-1.76 1.44-3.2 3.2-3.2h24c0.884 0 1.6 0.716 1.6 1.6v0 1.6h-25.6v1.6h27.2c0.884 0 1.6 0.716 1.6 1.6v0 16c0 1.767-1.433 3.2-3.2 3.2v0h-25.6c-1.767 0-3.2-1.433-3.2-3.2v0-19.2zM26.4 20.8c1.325 0 2.4-1.075 2.4-2.4s-1.075-2.4-2.4-2.4v0c-1.325 0-2.4 1.075-2.4 2.4s1.075 2.4 2.4 2.4v0z"></path>
</symbol>
<symbol id="icon-watch" viewBox="0 0 32 32">
<path d="M17.6 14.4h3.2v3.2h-6.4v-6.4h3.2v3.2zM8.288 24.128c-2.163-2.041-3.509-4.927-3.509-8.128s1.346-6.087 3.504-8.123l0.005-0.005 1.312-7.872h12.8l1.312 7.872c2.163 2.041 3.509 4.927 3.509 8.128s-1.346 6.087-3.504 8.123l-0.005 0.005-1.312 7.872h-12.8l-1.312-7.872zM16 24c4.418 0 8-3.582 8-8s-3.582-8-8-8v0c-4.418 0-8 3.582-8 8s3.582 8 8 8v0z"></path>
</symbol>
<symbol id="icon-butterfly-icon" viewBox="0 0 32 32">
<path d="M16.036 13.276c0.77 0 1.397 1.759 1.397 3.931 0 2.17-0.624 3.931-1.397 3.931s-1.397-1.759-1.397-3.931c0.003-2.172 0.627-3.931 1.397-3.931v0zM14.855 11.822c-0.036-0.060-0.060-0.13-0.070-0.203-0.252-1.694-0.762-3.335-1.46-4.803-0.645-1.358-1.449-2.563-2.352-3.523-0.182 0.101-0.393 0.161-0.617 0.161-0.702 0-1.272-0.57-1.272-1.272-0.003-0.702 0.567-1.272 1.27-1.272s1.272 0.57 1.272 1.272c0 0.057-0.005 0.114-0.010 0.169 1.054 1.074 1.985 2.443 2.719 3.988 0.713 1.499 1.244 3.166 1.522 4.891 0.096-0.013 0.193-0.016 0.289-0.005 0.034 0.003 0.068 0.008 0.099 0.016 0.278-1.727 0.809-3.4 1.525-4.901 0.734-1.545 1.665-2.914 2.719-3.988-0.008-0.055-0.010-0.112-0.010-0.169 0-0.702 0.57-1.272 1.272-1.272s1.272 0.57 1.272 1.272c0 0.702-0.57 1.272-1.272 1.272-0.224 0-0.434-0.057-0.617-0.161-0.903 0.96-1.707 2.165-2.352 3.523-0.697 1.467-1.21 3.109-1.459 4.803-0.016 0.101-0.057 0.195-0.117 0.271 0.172 0.208 0.338 0.46 0.497 0.752 0.908-1.949 2.159-3.624 3.718-5.058 1.751-1.608 3.887-2.906 6.361-3.934 0.010-0.005 0.021-0.008 0.031-0.010v0c0.775-0.242 1.457-0.362 2.034-0.323 0.632 0.044 1.145 0.276 1.522 0.744 0.541 0.669 0.65 1.878 0.593 3.109-0.057 1.181-0.263 2.373-0.388 3.080-0.263 1.48-0.58 3.010-1.189 4.381-0.622 1.397-1.54 2.612-3 3.408-0.432 0.237-0.885 0.424-1.358 0.567-0.164 0.049-0.333 0.094-0.505 0.133l0.021 0.013c1.324 0.825 2.711 1.691 2.901 3.346 0.049 0.427-0.042 1.153-0.185 1.917-0.195 1.038-0.494 2.172-0.676 2.706-0.242 0.713-0.645 1.793-1.218 2.682-0.617 0.96-1.431 1.709-2.461 1.629-1.491-0.114-2.76-1.27-3.793-2.802-1.27-1.886-2.193-4.366-2.698-6.093-0.393 0.562-0.827 0.864-1.311 0.869-0.499 0.005-1.004-0.312-1.514-0.996-0.349 1.355-1.069 3.382-2.019 5.159-1.212 2.271-2.815 4.152-4.571 3.884-0.010-0.003-0.021-0.003-0.031-0.005h-0.005c-0.206-0.036-0.408-0.099-0.604-0.19-1.244-0.575-2.274-2.248-2.932-4.079-0.65-1.803-0.95-3.78-0.744-4.995 0.044-0.252 0.107-0.476 0.195-0.666 0.226-0.489 0.562-0.913 0.952-1.283 0.377-0.359 0.809-0.666 1.241-0.926 0.143-0.088 0.289-0.169 0.437-0.247-0.187-0.029-0.375-0.065-0.565-0.109-0.697-0.159-1.27-0.343-1.782-0.637-0.52-0.299-0.973-0.705-1.421-1.303-0.83-1.111-1.371-2.31-1.748-3.567-0.372-1.238-0.583-2.531-0.76-3.848v0l-0.023-0.182c-0.219-1.618-0.546-4.043 0.791-5.318 0.843-0.804 2.378-0.507 4.025 0.25 2.453 1.126 5.24 3.291 6.077 4.163 0.684 0.71 1.316 1.501 1.889 2.38 0.445 0.684 0.853 1.421 1.223 2.217 0.213-0.369 0.429-0.661 0.643-0.885v0zM6.884 13.094c0.122 0.094 0.146 0.268 0.052 0.39s-0.268 0.146-0.39 0.052c-0.523-0.401-1.064-0.778-1.618-1.127-0.557-0.351-1.132-0.676-1.725-0.976-0.138-0.070-0.193-0.237-0.122-0.375s0.237-0.193 0.375-0.122c0.609 0.307 1.199 0.64 1.772 1.002 0.57 0.359 1.124 0.744 1.657 1.155v0zM24.583 18.076c0.052 0.005 0.104 0.021 0.148 0.044 0.369-0.049 0.728-0.125 1.074-0.229 0.427-0.127 0.833-0.297 1.215-0.507 1.293-0.708 2.115-1.798 2.677-3.059 0.572-1.288 0.879-2.771 1.134-4.204 0.122-0.692 0.325-1.863 0.38-2.987 0.052-1.074-0.026-2.107-0.427-2.604-0.237-0.294-0.572-0.44-0.996-0.468-0.476-0.034-1.061 0.073-1.743 0.284-2.386 0.994-4.446 2.243-6.127 3.788-1.678 1.538-2.981 3.374-3.863 5.547v0c-0.036 0.088-0.104 0.164-0.2 0.203-0.19 0.081-0.406-0.008-0.486-0.198-0.437-1.041-0.872-1.67-1.303-1.717-0.419-0.047-0.929 0.471-1.553 1.717-0.036 0.088-0.107 0.161-0.2 0.2-0.19 0.078-0.408-0.010-0.486-0.2-0.429-1.028-0.918-1.954-1.465-2.794-0.546-0.838-1.15-1.592-1.8-2.269-0.804-0.838-3.484-2.916-5.851-4.006-1.387-0.637-2.633-0.931-3.205-0.388-1.061 1.015-0.762 3.216-0.565 4.68l0.023 0.182v0.003c0.172 1.277 0.377 2.534 0.736 3.733 0.354 1.181 0.859 2.305 1.629 3.335 0.382 0.51 0.762 0.853 1.197 1.103 0.442 0.255 0.95 0.416 1.577 0.559 0.312 0.070 0.627 0.122 0.942 0.156 0.19 0.021 0.38 0.034 0.567 0.042 0.018-0.005 0.039-0.008 0.060-0.010l6.088-0.695c0.25-0.029 0.476 0.151 0.502 0.401 0.029 0.25-0.151 0.476-0.401 0.502l-6.088 0.695c-0.026 0.003-0.052 0.003-0.075 0.003-0.148 0.062-0.297 0.127-0.442 0.195-0.281 0.133-0.552 0.276-0.804 0.429-0.388 0.234-0.773 0.51-1.111 0.83-0.328 0.31-0.606 0.661-0.788 1.056-0.060 0.13-0.107 0.291-0.138 0.479-0.187 1.101 0.099 2.929 0.708 4.62 0.598 1.665 1.501 3.169 2.544 3.653 0.135 0.062 0.276 0.107 0.414 0.13v0h0.003c0.008 0 0.016 0.003 0.023 0.003 1.361 0.208 2.726-1.478 3.804-3.497 1.127-2.107 1.917-4.566 2.12-5.744 0.003-0.008 0.005-0.034 0.013-0.083v0c0.016-0.109 0.083-0.211 0.187-0.271 0.18-0.099 0.406-0.036 0.505 0.143 0.533 0.96 0.981 1.402 1.355 1.4 0.356-0.005 0.721-0.44 1.095-1.238 0.044-0.107 0.135-0.193 0.255-0.221 0.2-0.049 0.401 0.073 0.45 0.273 0.398 1.613 1.381 4.581 2.833 6.738 0.916 1.358 2.008 2.383 3.229 2.477 0.695 0.052 1.298-0.533 1.779-1.288 0.528-0.825 0.911-1.842 1.137-2.516 0.172-0.51 0.46-1.603 0.65-2.607 0.133-0.702 0.216-1.35 0.177-1.696-0.151-1.296-1.381-2.066-2.555-2.797-0.211-0.13-0.419-0.263-0.63-0.398-0.010 0-0.023-0.003-0.034-0.003l-6.088-0.695c-0.25-0.029-0.429-0.255-0.401-0.502 0.029-0.25 0.255-0.429 0.502-0.401l6.093 0.689zM20.662 13.208c-0.094 0.122-0.268 0.146-0.39 0.052s-0.146-0.268-0.052-0.39c1.168-1.527 2.438-2.911 3.827-4.121 1.394-1.212 2.911-2.253 4.574-3.091 0.138-0.070 0.304-0.013 0.375 0.122 0.070 0.138 0.013 0.304-0.122 0.375-1.618 0.814-3.096 1.829-4.457 3.015-1.366 1.186-2.609 2.542-3.754 4.038v0zM25.53 13.536c-0.122 0.094-0.297 0.070-0.39-0.052s-0.070-0.297 0.052-0.39c0.533-0.408 1.087-0.796 1.66-1.155 0.572-0.362 1.163-0.695 1.772-1.002 0.138-0.070 0.304-0.013 0.375 0.122 0.070 0.138 0.013 0.304-0.122 0.375-0.593 0.299-1.168 0.624-1.725 0.976-0.559 0.349-1.098 0.726-1.621 1.127v0zM22.98 13.162c-0.107 0.109-0.284 0.112-0.395 0.003-0.109-0.107-0.112-0.284-0.003-0.395 0.892-0.911 1.834-1.743 2.836-2.49 1.004-0.749 2.068-1.413 3.203-1.985 0.138-0.070 0.304-0.013 0.375 0.122 0.070 0.138 0.013 0.304-0.122 0.375-1.101 0.554-2.139 1.202-3.119 1.933-0.981 0.739-1.904 1.551-2.773 2.438v0zM11.856 12.87c0.094 0.122 0.070 0.297-0.052 0.39s-0.297 0.070-0.39-0.052c-1.145-1.496-2.388-2.851-3.752-4.038-1.361-1.184-2.841-2.198-4.457-3.015-0.138-0.070-0.193-0.237-0.122-0.375s0.237-0.193 0.375-0.122c1.662 0.838 3.179 1.878 4.574 3.091 1.387 1.21 2.656 2.594 3.824 4.121v0zM9.491 12.771c0.107 0.109 0.107 0.286-0.003 0.395s-0.286 0.107-0.395-0.003c-0.869-0.887-1.793-1.701-2.773-2.433s-2.019-1.379-3.119-1.933c-0.138-0.070-0.193-0.237-0.122-0.375s0.237-0.193 0.375-0.122c1.134 0.572 2.198 1.236 3.203 1.985 1.002 0.741 1.946 1.574 2.836 2.485v0z"></path>
</symbol>
<symbol id="icon-sun-2" viewBox="0 0 32 32">
<path d="M15.2 23.989c-3.963 0-7.189-3.224-7.189-7.189s3.224-7.189 7.189-7.189 7.189 3.224 7.189 7.189-3.224 7.189-7.189 7.189zM15.2 11.211c-3.082 0-5.589 2.507-5.589 5.589s2.507 5.589 5.589 5.589 5.589-2.507 5.589-5.589-2.507-5.589-5.589-5.589z"></path>
<path d="M15.2 8c-0.442 0-0.8-0.358-0.8-0.8v-4.8c0-0.442 0.358-0.8 0.8-0.8s0.8 0.358 0.8 0.8v4.8c0 0.442-0.358 0.8-0.8 0.8z"></path>
<path d="M15.2 32c-0.442 0-0.8-0.358-0.8-0.8v-4.8c0-0.442 0.358-0.8 0.8-0.8s0.8 0.358 0.8 0.8v4.8c0 0.442-0.358 0.8-0.8 0.8z"></path>
<path d="M5.6 17.6h-4.8c-0.442 0-0.8-0.358-0.8-0.8s0.358-0.8 0.8-0.8h4.8c0.442 0 0.8 0.358 0.8 0.8s-0.358 0.8-0.8 0.8z"></path>
<path d="M29.6 17.6h-4.8c-0.442 0-0.8-0.358-0.8-0.8s0.358-0.8 0.8-0.8h4.8c0.442 0 0.8 0.358 0.8 0.8s-0.358 0.8-0.8 0.8z"></path>
<path d="M7.2 9.6c-0.205 0-0.41-0.078-0.566-0.234l-3.2-3.2c-0.312-0.312-0.312-0.819 0-1.131s0.819-0.312 1.131 0l3.2 3.2c0.312 0.312 0.312 0.819 0 1.131-0.157 0.157-0.362 0.234-0.566 0.234z"></path>
<path d="M4 28.8c-0.205 0-0.41-0.078-0.566-0.234-0.312-0.312-0.312-0.819 0-1.131l3.2-3.2c0.312-0.312 0.819-0.312 1.131 0s0.312 0.819 0 1.131l-3.2 3.2c-0.157 0.157-0.362 0.234-0.566 0.234z"></path>
<path d="M26.4 28.8c-0.205 0-0.41-0.078-0.566-0.234l-3.2-3.2c-0.312-0.312-0.312-0.819 0-1.131s0.819-0.312 1.131 0l3.2 3.2c0.312 0.312 0.312 0.819 0 1.131-0.157 0.157-0.362 0.234-0.566 0.234z"></path>
<path d="M23.2 9.6c-0.205 0-0.41-0.078-0.566-0.234-0.312-0.312-0.312-0.819 0-1.131l3.2-3.2c0.312-0.312 0.819-0.312 1.131 0s0.312 0.819 0 1.131l-3.2 3.2c-0.157 0.157-0.362 0.234-0.566 0.234z"></path>
</symbol>
<symbol id="icon-cloud-2" viewBox="0 0 32 32">
<path d="M25.61 25.6h-16.010c-5.293 0-9.6-4.307-9.6-9.6s4.307-9.6 9.6-9.6c2.563 0 5.019 1.029 6.816 2.84 0.141-0.31 0.314-0.608 0.52-0.888 0.902-1.222 2.347-1.952 3.864-1.952 2.646 0 4.8 2.154 4.8 4.8 0 0.562-0.098 1.11-0.285 1.627 0.098-0.005 0.195-0.006 0.294-0.006 3.523 0 6.39 2.867 6.39 6.39s-2.867 6.39-6.39 6.39zM9.6 8c-4.411 0-8 3.589-8 8s3.589 8 8 8h16.010c2.642 0 4.79-2.149 4.79-4.79s-2.149-4.79-4.79-4.79c-0.566 0-1.118 0.098-1.642 0.288-0.349 0.128-0.739-0.002-0.944-0.312s-0.166-0.72 0.090-0.99c0.571-0.602 0.886-1.384 0.886-2.206 0-1.765-1.435-3.2-3.2-3.2-1.027 0-1.966 0.475-2.576 1.302-0.368 0.499-0.584 1.085-0.621 1.691-0.021 0.339-0.254 0.629-0.581 0.72s-0.677-0.032-0.872-0.309c-0.176-0.25-0.366-0.491-0.566-0.715-1.518-1.709-3.699-2.69-5.984-2.69z"></path>
</symbol>
<symbol id="icon-bicycle-2" viewBox="0 0 32 32">
<path d="M8.8 14.403c-1.325 0-2.403-1.078-2.403-2.403s1.078-2.403 2.403-2.403 2.403 1.078 2.403 2.403-1.078 2.403-2.403 2.403zM8.8 11.197c-0.443 0-0.803 0.36-0.803 0.803s0.36 0.803 0.803 0.803 0.803-0.36 0.803-0.803-0.36-0.803-0.803-0.803z"></path>
<path d="M15.2 27.2c-0.442 0-0.8-0.358-0.8-0.8v-4.797c0-1.235 0.93-2.469 2.118-2.81l2.4-0.686-5.216-3.477-2.736 2.736c-0.15 0.15-0.354 0.234-0.566 0.234h-3.203c-0.442 0-0.8-0.358-0.8-0.8s0.358-0.8 0.8-0.8h2.872l2.966-2.966c0.27-0.27 0.693-0.312 1.010-0.101l5.869 3.912c0.88 0.587 0.877 1.275 0.835 1.546s-0.25 0.926-1.266 1.218l-2.523 0.723c-0.501 0.144-0.958 0.749-0.958 1.272v4.797c0 0.442-0.358 0.8-0.8 0.8z"></path>
<path d="M24 32c-3.53 0-6.4-2.87-6.4-6.4s2.87-6.4 6.4-6.4 6.4 2.87 6.4 6.4-2.87 6.4-6.4 6.4zM24 20.8c-2.646 0-4.8 2.154-4.8 4.8s2.154 4.8 4.8 4.8 4.8-2.154 4.8-4.8-2.154-4.8-4.8-4.8z"></path>
<path d="M6.398 32c-3.528 0-6.398-2.87-6.398-6.398s2.87-6.398 6.398-6.398 6.398 2.87 6.398 6.398-2.87 6.398-6.398 6.398zM6.398 20.803c-2.646 0-4.798 2.152-4.798 4.798s2.152 4.798 4.798 4.798 4.798-2.152 4.798-4.798-2.152-4.798-4.798-4.798z"></path>
</symbol>
<symbol id="icon-bus-2" viewBox="0 0 32 32">
<path d="M8.8 25.6c-1.323 0-2.4-1.077-2.4-2.4s1.077-2.4 2.4-2.4 2.4 1.077 2.4 2.4-1.077 2.4-2.4 2.4zM8.8 22.4c-0.442 0-0.8 0.358-0.8 0.8s0.358 0.8 0.8 0.8 0.8-0.358 0.8-0.8-0.358-0.8-0.8-0.8z"></path>
<path d="M23.2 25.6c-1.323 0-2.4-1.077-2.4-2.4s1.077-2.4 2.4-2.4 2.4 1.077 2.4 2.4-1.077 2.4-2.4 2.4zM23.2 22.4c-0.442 0-0.8 0.358-0.8 0.8s0.358 0.8 0.8 0.8 0.8-0.358 0.8-0.8-0.358-0.8-0.8-0.8z"></path>
<path d="M21.6 8h-11.2c-0.442 0-0.8-0.358-0.8-0.8s0.358-0.8 0.8-0.8h11.2c0.442 0 0.8 0.358 0.8 0.8s-0.358 0.8-0.8 0.8z"></path>
<path d="M24.8 9.6h-17.6c-0.442 0-0.8 0.358-0.8 0.8v8c0 0.442 0.358 0.8 0.8 0.8h7.997c0.002 0 0.002 0 0.003 0s0.002 0 0.003 0h7.994c0.002 0 0.002 0 0.003 0s0.002 0 0.003 0h1.597c0.442 0 0.8-0.358 0.8-0.8v-8c0-0.442-0.358-0.8-0.8-0.8zM8 11.2h16v6.4h-0.558l-4.598-3.066c-0.368-0.245-0.864-0.146-1.109 0.222s-0.146 0.864 0.222 1.109l2.602 1.734h-5.115l-4.598-3.066c-0.368-0.245-0.864-0.146-1.109 0.222s-0.146 0.864 0.222 1.109l2.602 1.734h-4.558v-6.4z"></path>
<path d="M24.986 2.853c-2.181-0.83-5.205-1.253-8.986-1.253s-6.803 0.421-8.986 1.253c-3.154 1.202-3.814 3.027-3.814 4.347v17.6c0 1.931 1.376 3.547 3.2 3.92v1.68c0 0.882 0.718 1.6 1.6 1.6h1.6c0.882 0 1.6-0.718 1.6-1.6v-1.6h9.6v1.6c0 0.882 0.718 1.6 1.6 1.6h1.6c0.882 0 1.6-0.718 1.6-1.6v-1.68c1.824-0.371 3.2-1.987 3.2-3.92v-17.6c0-1.32-0.662-3.146-3.814-4.347zM9.6 30.4h-1.6v-1.6h1.6v1.6zM22.4 30.4v-1.6h1.6v1.6h-1.6zM27.2 24.8c0 1.323-1.077 2.4-2.4 2.4h-17.6c-1.323 0-2.4-1.077-2.4-2.4v-17.6c0-1.189 0.938-2.149 2.786-2.853 1.971-0.75 4.88-1.147 8.414-1.147s6.445 0.397 8.414 1.147c1.848 0.704 2.786 1.664 2.786 2.853v17.6z"></path>
</symbol>
<symbol id="icon-car-2" viewBox="0 0 32 32">
<path d="M8.8 25.6c-1.323 0-2.4-1.077-2.4-2.4s1.077-2.4 2.4-2.4 2.4 1.077 2.4 2.4-1.077 2.4-2.4 2.4zM8.8 22.4c-0.442 0-0.8 0.358-0.8 0.8s0.358 0.8 0.8 0.8 0.8-0.358 0.8-0.8-0.358-0.8-0.8-0.8z"></path>
<path d="M23.2 25.6c-1.323 0-2.4-1.077-2.4-2.4s1.077-2.4 2.4-2.4 2.4 1.077 2.4 2.4-1.077 2.4-2.4 2.4zM23.2 22.4c-0.442 0-0.8 0.358-0.8 0.8s0.358 0.8 0.8 0.8 0.8-0.358 0.8-0.8-0.358-0.8-0.8-0.8z"></path>
<path d="M27.133 19.051c-0.208-1.267-0.885-5.142-1.618-6.61-0.488-0.976-1.741-1.723-3.722-2.218-1.61-0.402-3.667-0.624-5.794-0.624s-4.184 0.221-5.794 0.624c-1.981 0.496-3.234 1.242-3.722 2.218-0.733 1.466-1.41 5.342-1.618 6.61-1.118 0.766-1.667 1.875-1.667 3.349v4c0 1.043 0.669 1.933 1.6 2.262v1.738c0 0.882 0.718 1.6 1.6 1.6h1.6c0.882 0 1.6-0.718 1.6-1.6v-1.6h12.8v1.6c0 0.882 0.718 1.6 1.6 1.6h1.6c0.882 0 1.6-0.718 1.6-1.6v-1.738c0.931-0.33 1.6-1.219 1.6-2.262v-4c0-1.474-0.549-2.582-1.667-3.349zM7.915 13.158c0.475-0.949 3.469-1.958 8.085-1.958s7.61 1.008 8.085 1.958c0.459 0.92 0.97 3.354 1.285 5.093-0.157-0.046-0.318-0.090-0.485-0.128-0.427-0.101-0.888-0.182-1.381-0.25l-4.638-3.323c-0.358-0.258-0.859-0.174-1.117 0.184s-0.174 0.859 0.184 1.117l2.506 1.795c-1.36-0.045-2.851-0.045-4.44-0.045-0.187 0-0.373 0-0.558 0l-4.598-3.066c-0.368-0.245-0.864-0.146-1.109 0.222s-0.146 0.864 0.222 1.109l2.63 1.754c-2.146 0.038-4.011 0.155-5.472 0.502-0.166 0.040-0.328 0.083-0.485 0.128 0.317-1.739 0.826-4.173 1.286-5.093zM8 30.4h-1.6v-1.6h1.6v1.6zM24 30.4v-1.6h1.6v1.6h-1.6zM27.2 26.4c0 0.442-0.358 0.8-0.8 0.8h-20.8c-0.442 0-0.8-0.358-0.8-0.8v-4c0-1.478 0.778-2.267 2.685-2.722 2.008-0.478 5.024-0.478 8.515-0.478s6.506 0 8.515 0.478c1.907 0.454 2.685 1.243 2.685 2.722v4z"></path>
</symbol>
<symbol id="icon-train-2" viewBox="0 0 32 32">
<path d="M23.2 24h-16c-2.205 0-4-1.795-4-4v-16c0-2.205 1.795-4 4-4h16c2.205 0 4 1.795 4 4v16c0 2.205-1.795 4-4 4zM7.2 1.6c-1.323 0-2.4 1.077-2.4 2.4v16c0 1.323 1.077 2.4 2.4 2.4h16c1.323 0 2.4-1.077 2.4-2.4v-16c0-1.323-1.077-2.4-2.4-2.4h-16z"></path>
<path d="M30.315 30.842l-3.2-6.4c-0.197-0.395-0.678-0.555-1.074-0.358s-0.555 0.678-0.358 1.074l0.221 0.442h-21.411l0.221-0.442c0.197-0.395 0.037-0.875-0.358-1.074s-0.875-0.037-1.074 0.358l-3.2 6.4c-0.197 0.395-0.037 0.875 0.358 1.074 0.115 0.058 0.237 0.085 0.357 0.085 0.293 0 0.576-0.162 0.717-0.443l0.579-1.158h26.211l0.579 1.158c0.141 0.28 0.422 0.443 0.717 0.443 0.12 0 0.242-0.027 0.357-0.085 0.395-0.197 0.555-0.678 0.358-1.074zM2.894 28.8l0.8-1.6h23.011l0.8 1.6h-24.611z"></path>
<path d="M8.8 20.8c-1.323 0-2.4-1.077-2.4-2.4s1.077-2.4 2.4-2.4 2.4 1.077 2.4 2.4-1.077 2.4-2.4 2.4zM8.8 17.6c-0.442 0-0.8 0.358-0.8 0.8s0.358 0.8 0.8 0.8 0.8-0.358 0.8-0.8-0.358-0.8-0.8-0.8z"></path>
<path d="M21.6 20.8c-1.323 0-2.4-1.077-2.4-2.4s1.077-2.4 2.4-2.4 2.4 1.077 2.4 2.4-1.077 2.4-2.4 2.4zM21.6 17.6c-0.442 0-0.8 0.358-0.8 0.8s0.358 0.8 0.8 0.8 0.8-0.358 0.8-0.8-0.358-0.8-0.8-0.8z"></path>
<path d="M20 4.8h-9.6c-0.442 0-0.8-0.358-0.8-0.8s0.358-0.8 0.8-0.8h9.6c0.442 0 0.8 0.358 0.8 0.8s-0.358 0.8-0.8 0.8z"></path>
<path d="M23.2 6.4h-16c-0.442 0-0.8 0.358-0.8 0.8v6.4c0 0.442 0.358 0.8 0.8 0.8h16c0.442 0 0.8-0.358 0.8-0.8v-6.4c0-0.442-0.358-0.8-0.8-0.8zM8 8h6.4v4.8h-6.4v-4.8zM22.4 12.8h-6.4v-4.8h6.4v4.8z"></path>
</symbol>
<symbol id="lnr-rocket" viewBox="0 0 1024 1024"><title>rocket</title><path class="path1" d="M691.2 460.8c-70.579 0-128-57.421-128-128s57.421-128 128-128 128 57.421 128 128-57.421 128-128 128zM691.2 256c-42.347 0-76.8 34.453-76.8 76.8s34.453 76.8 76.8 76.8 76.8-34.453 76.8-76.8-34.453-76.8-76.8-76.8z"></path><path class="path2" d="M25.603 1024c-6.675 0-13.219-2.613-18.106-7.499-7.034-7.034-9.355-17.502-5.957-26.85 78.781-216.648 161.613-326.499 246.195-326.499 27.883 0 53.979 11.96 77.566 35.546 37.283 37.283 38.611 74.394 33.162 98.96-17.125 77.187-126.171 152.822-324.115 224.802-2.853 1.038-5.813 1.541-8.746 1.541zM247.736 714.354c-25.354 0-55.19 22.214-86.282 64.237-30.578 41.33-61.274 100.205-91.525 175.477 68.352-27.478 123.302-55.379 163.806-83.205 54.648-37.542 70.808-66.562 74.742-84.294 3.944-17.779-2.395-34.682-19.382-51.667-13.826-13.826-27.354-20.547-41.36-20.547z"></path><path class="path3" d="M998.4 0c-132.848 0-251.256 22.534-351.939 66.981-82.997 36.638-154.075 88.075-211.258 152.882-10.674 12.098-20.552 24.334-29.691 36.586-44.142 2.942-89.275 20.47-134.362 52.221-38.13 26.851-76.459 64.014-113.923 110.458-62.965 78.054-101.706 154.987-103.325 158.226-5.605 11.211-2.25 24.814 7.904 32.166 4.501 3.258 9.758 4.856 14.992 4.856 6.573 0 13.109-2.52 18.064-7.434 0.243-0.24 24.714-24.299 66.469-47.926 34.41-19.474 87.461-42.336 151.613-46.384 16.219 41.541 62.662 91.181 84.954 113.47 22.291 22.291 71.931 68.734 113.472 84.955-4.046 64.152-26.91 117.202-46.382 151.611-23.629 41.757-47.686 66.227-47.89 66.432-8.878 8.878-10.006 22.885-2.666 33.070 4.952 6.87 12.77 10.634 20.782 10.634 3.867 0 7.779-0.877 11.434-2.704 3.237-1.619 80.17-40.36 158.226-103.325 46.443-37.464 83.606-75.794 110.458-113.922 31.75-45.088 49.278-90.221 52.221-134.363 12.251-9.139 24.49-19.019 36.586-29.693 64.806-57.181 116.243-128.259 152.883-211.258 44.443-100.682 66.979-219.091 66.979-351.939v-25.6h-25.6zM159.102 502.187c48.797-70.8 123.384-158.595 207.446-186.232-33.222 58.203-50.422 111.691-56.611 145.555-59.323 3.626-110.467 20.89-150.835 40.677zM521.87 864.781c19.762-40.35 36.995-91.453 40.619-150.718 33.859-6.187 87.336-23.384 145.528-56.597-27.658 83.92-115.381 158.49-186.147 207.315zM770.262 550.405c-106.48 93.952-216.794 115.195-232.662 115.195-0.102 0-10.581-0.23-38.867-20.136-19.728-13.883-42.682-33.618-64.63-55.566-21.95-21.95-41.683-44.902-55.566-64.632-19.906-28.285-20.136-38.763-20.136-38.866 0-15.869 21.243-126.182 115.197-232.662 112.416-127.406 284.533-197.059 498.894-202.227-5.17 214.358-74.822 386.477-202.229 498.894z"></path></symbol>
</defs>
</svg>
